# xmcd
#
# Track frame offsets: 
#        183
#        16123
#        33430
#        45160
#        65103
#        78043
#        94563
#        110100
#        126645
#        142803
#        155025
#        173023
#
# Disc length: 2517 seconds
#
# Revision: 3
# Processed by: cddbd v1.5.2PL0 Copyright (c) Steve Scherf et al.
# Submitted via: ExactAudioCopyFreeDBPlugin 1.0
#
DISCID=9409d30c
DTITLE=Willie 'Big Eyes' Smith - Bag Full Of Blues
DYEAR=1995
DGENRE=Blues
TTITLE0=Tell Me Mama
TTITLE1=Hard Times
TTITLE2=Sure As You Live
TTITLE3=Believe Me
TTITLE4=Baby Please Don't Go
TTITLE5=Tired Of Crying
TTITLE6=Hard, Hard Way
TTITLE7=Reap What You Sow
TTITLE8=WSKW Special
TTITLE9=I Want My Baby Back
TTITLE10=Here I Am
TTITLE11=Trust Me
EXTD=
EXTT0=
EXTT1=
EXTT2=
EXTT3=
EXTT4=
EXTT5=
EXTT6=
EXTT7=
EXTT8=
EXTT9=
EXTT10=
EXTT11=
PLAYORDER=
